<svg xmlns="http://www.w3.org/2000/svg" viewBox="0 0 25.9229 17.2935">
<style type="text/css">
.automotive-line-dark{
 fill:#393939;
 }
.automotive-hover{
 display:none;
 }
.automotive-hover02{
 display:inline;
 fill:#C03C3B;
 stroke:#C03C3B;
 stroke-width:0.2921;
 stroke-linecap:round;
 stroke-miterlimit:10;
 }
.automotive-hover03{
 display:inline;
 fill:#FDFEFE;
 }
.automotive-hover04{
 display:inline;
 fill:#FDFEFE;
 stroke:#C03C3B;
 stroke-width:0.2921;
 stroke-linecap:round;
 stroke-miterlimit:10;
 }
.automotive-hover05{
 display:inline;
 fill:#FFFFFF;
 stroke:#C03C3B;
 stroke-width:0.2921;
 stroke-linecap:round;
 stroke-miterlimit:10;
 }
.automotive-hover06{
 display:inline;
 fill:none;
 stroke:#C03C3B;
 stroke-width:0.2921;
 stroke-linecap:round;
 stroke-miterlimit:10;
 }
</style>
<g id="Layer_1">
<g>
<g>
<path class="automotive-line-dark" d="M7.8198,11.7251H3.8306c-0.0806,0-0.146-0.0654-0.146-0.1465s0.0654-0.1465,0.146-0.1465h3.6973v-0.5303
c0-0.6035-0.4502-1.123-1.0469-1.21L3.8105,9.3237C3.731,9.313,3.6748,9.2393,3.686,9.1592
c0.0107-0.0796,0.0786-0.1377,0.1646-0.1245L6.522,9.4028c0.7402,0.1074,1.2979,0.752,1.2979,1.499V11.7251z"></path>
</g>
<g>
<path class="automotive-line-dark" d="M22.2578,17.2935h-0.8994c-0.9688,0-1.7568-0.7881-1.7568-1.7559v-0.7529H6.3203v0.7529
c0,0.9678-0.7876,1.7559-1.7554,1.7559H3.665c-0.9678,0-1.7554-0.7881-1.7554-1.7559V8.1797L0.353,7.6113
C0.1416,7.5337,0,7.3306,0,7.106V5.7886C0,5.4922,0.2412,5.251,0.5381,5.251h1.8667c0.4785,0,0.9185-0.2612,1.1475-0.6812
l1.8604-3.4111C5.8027,0.4438,6.5503,0,7.3647,0h11.1929c0.8145,0,1.5625,0.4438,1.9521,1.1587l1.8604,3.4111
C22.5996,4.9897,23.04,5.251,23.5186,5.251h1.8662c0.2969,0,0.5381,0.2412,0.5381,0.5376V7.106
c0,0.2246-0.1426,0.4277-0.3525,0.5054l-1.5566,0.5684v7.3579C24.0137,16.5054,23.2256,17.2935,22.2578,17.2935z M6.0283,14.4917
h13.8662v1.0459c0,0.8066,0.6563,1.4629,1.4639,1.4629h0.8994c0.8066,0,1.4629-0.6563,1.4629-1.4629v-7.562l1.749-0.6387
c0.0957-0.0352,0.1602-0.1279,0.1602-0.231V5.7886c0-0.1353-0.1094-0.2456-0.2451-0.2456h-1.8662
c-0.5859,0-1.124-0.3193-1.4043-0.8335l-1.8604-3.4111C19.915,0.6777,19.2646,0.292,18.5576,0.292H7.3647
c-0.707,0-1.3569,0.3857-1.6953,1.0063L3.8091,4.7095C3.5283,5.2236,2.9902,5.543,2.4048,5.543H0.5381
c-0.1357,0-0.2461,0.1104-0.2461,0.2456V7.106c0,0.1025,0.0649,0.1958,0.1616,0.231l1.748,0.6387v7.562
c0,0.8066,0.6563,1.4629,1.4634,1.4629h0.8999c0.8071,0,1.4634-0.6563,1.4634-1.4629V14.4917z"></path>
</g>
<g>
<path class="automotive-line-dark" d="M20.6738,5.5747H5.2485l1.856-3.4028c0.1255-0.23,0.3662-0.3726,0.6279-0.3726h10.458
c0.2607,0,0.502,0.1426,0.6279,0.3721L20.6738,5.5747z M5.7407,5.2827h14.4409l-1.6191-2.9712
c-0.0752-0.1357-0.2178-0.2202-0.3721-0.2202H7.7324c-0.1548,0-0.2974,0.0845-0.3711,0.2202L5.7407,5.2827z"></path>
</g>
<g>
<path class="automotive-line-dark" d="M22.0928,11.7251h-3.9902v-0.8232c0-0.7471,0.5576-1.3916,1.2979-1.499l2.6729-0.3682
c0.0801-0.0107,0.1533,0.0444,0.1641,0.1245s-0.0449,0.1538-0.125,0.1646l-2.6719,0.3682
c-0.5957,0.0869-1.0449,0.6064-1.0449,1.21v0.5303h3.6973c0.0811,0,0.1465,0.0654,0.1465,0.1465S22.1738,11.7251,22.0928,11.7251
z"></path>
</g>
<g>
<path class="automotive-line-dark" d="M15.7705,11.7856h-5.6182c-0.0806,0-0.146-0.0654-0.146-0.1465s0.0654-0.1465,0.146-0.1465h5.6182
c0.0811,0,0.1465,0.0654,0.1465,0.1465S15.8516,11.7856,15.7705,11.7856z"></path>
</g>
<g>
<path class="automotive-line-dark" d="M15.7705,11.7856c-0.0059,0-0.0107-0.001-0.0166-0.001c-0.0801-0.0098-0.1377-0.082-0.1289-0.1621
l0.2383-2.0615h-5.8037l0.2378,2.0615c0.0093,0.0801-0.0483,0.1523-0.1284,0.1621c-0.0825-0.0049-0.1528-0.0498-0.1616-0.1289
L9.7314,9.269h6.46l-0.2754,2.3867C15.9072,11.73,15.8438,11.7856,15.7705,11.7856z"></path>
</g>
<g>
<path class="automotive-line-dark" d="M6.1743,14.7847H4.4907c-0.0806,0-0.146-0.0654-0.146-0.1465s0.0654-0.1465,0.146-0.1465h1.6836
c0.0806,0,0.146,0.0654,0.146,0.1465S6.2549,14.7847,6.1743,14.7847z"></path>
</g>
<g>
<path class="automotive-line-dark" d="M21.4326,14.7847H19.748c-0.0811,0-0.1465-0.0654-0.1465-0.1465s0.0654-0.1465,0.1465-0.1465h1.6846
c0.0811,0,0.1465,0.0654,0.1465,0.1465S21.5137,14.7847,21.4326,14.7847z"></path>
</g>
</g>
</g>
<g id="Layer_2" class="automotive-hover">
<path class="automotive-hover02" d="M19.7485,14.6382v0.8996c0,0.8889,0.7206,1.6096,1.6096,1.6096h0.8996c0.8889,0,1.6096-0.7206,1.6096-1.6096
V8.0776l1.6522-0.6037c0.1545-0.0565,0.2573-0.2034,0.2573-0.3679V5.7887c0-0.2163-0.1754-0.3917-0.3917-0.3917h-1.8669
c-0.5318,0-1.0211-0.2904-1.2757-0.7572l-1.8605-3.411c-0.3641-0.6674-1.0636-1.0827-1.8239-1.0827h-5.5966H7.3648
c-0.7603,0-1.4598,0.4153-1.8238,1.0827l-1.8605,3.411C3.4258,5.1066,2.9365,5.397,2.4048,5.397H0.5379
c-0.2163,0-0.3917,0.1754-0.3917,0.3917V7.106c0,0.1644,0.1028,0.3114,0.2572,0.3679l1.6522,0.6037v7.4602
c0,0.8889,0.7206,1.6096,1.6096,1.6096h0.8996c0.8889,0,1.6096-0.7206,1.6096-1.6096v-0.8996H19.7485z"></path>
<polygon class="automotive-hover03" points="15.7518,11.496 10.193,11.496 9.8955,9.415 15.9758,9.415 "></polygon>
<path class="automotive-hover04" d="M3.8304,11.5782h3.8433v-0.6761c0-0.68-0.499-1.2571-1.172-1.3551L3.8304,9.1792"></path>
<path class="automotive-hover05" d="M10.8042,5.4286h9.624L18.69,2.2417c-0.0997-0.1828-0.2911-0.2963-0.4993-0.2963h-5.2292H7.7323
c-0.2083,0-0.3997,0.1135-0.4994,0.2963l-1.7382,3.187H10.8042z"></path>
<path class="automotive-hover04" d="M22.0925,9.1792L19.4211,9.547c-0.673,0.0981-1.172,0.6751-1.172,1.3551v0.6761h3.8433"></path>
<line class="automotive-hover06" x1="10.1522" y1="11.6394" x2="15.7707" y2="11.6394"></line>
<polyline class="automotive-hover06" points="15.7707,11.6394 16.0274,9.415 12.9614,9.415 9.8955,9.415 10.1522,11.6394 "></polyline>
<line class="automotive-hover06" x1="6.1744" y1="14.6382" x2="4.4906" y2="14.6382"></line>
<line class="automotive-hover06" x1="19.7485" y1="14.6382" x2="21.4322" y2="14.6382"></line>
</g>
</svg>