<svg xmlns="http://www.w3.org/2000/svg" viewBox="0 0 15.2212 21.3687">
<style type="text/css">
.energy-electric-line-dark {
 fill:#393939;
 }
.energy-electric-hover {
 display:none;
 }
.energy-electric-hover02 {
 display:inline;
 fill:#C03C3B;
 stroke:#C03C3B;
 stroke-width:0.234;
 stroke-linecap:round;
 stroke-miterlimit:10;
 }
.energy-electric-hover03 {
 display:inline;
 fill:none;
 stroke:#C03C3B;
 stroke-width:0.234;
 stroke-linecap:
 round;
 stroke-miterlimit:10;
 }
.energy-electric-hover04 {
 display:inline;
 fill:none;
 stroke:#FFFFFF;
 stroke-width:0.234;
 stroke-linecap:round;
 stroke-miterlimit:10;
 }
</style>
<g id="Layer_2">
<g>
<path class="energy-electric-line-dark " d="M8.1089,17.5981H7.1118c-3.3521,0-6.0791-2.7266-6.0791-6.0786V7.7036H1.0068C0.4517,7.7036,0,7.252,0,6.6968
V6.5479C0,5.9927,0.4517,5.541,1.0068,5.541h13.2075c0.5547,0,1.0068,0.4517,1.0068,1.0068v0.1489
c0,0.5552-0.4521,1.0068-1.0068,1.0068H14.188v3.8159C14.188,14.8716,11.4604,17.5981,8.1089,17.5981z M1.2671,7.7036v3.8159
c0,3.2222,2.6221,5.8442,5.8447,5.8442h0.9971c3.2227,0,5.8447-2.6221,5.8447-5.8442V7.4692h0.2607
c0.4258,0,0.7725-0.3462,0.7725-0.7725V6.5479c0-0.4263-0.3467-0.7725-0.7725-0.7725H1.0068
c-0.4263,0-0.7725,0.3462-0.7725,0.7725v0.1489c0,0.4263,0.3462,0.7725,0.7725,0.7725h6.1987
c0.0645,0,0.1172,0.0527,0.1172,0.1172S7.27,7.7036,7.2056,7.7036H1.2671z"></path>
</g>
<g>
<path class="energy-electric-line-dark " d="M4.6533,5.7754H2.3296V1.1616C2.3296,0.521,2.8511,0,3.4917,0s1.1616,0.521,1.1616,1.1616V5.7754z
 M2.564,5.541h1.855V1.1616c0-0.5112-0.416-0.9272-0.9272-0.9272c-0.5117,0-0.9277,0.416-0.9277,0.9272V5.541z"></path>
</g>
<g>
<path class="energy-electric-line-dark " d="M12.8911,5.7754h-2.3242V1.1616C10.5669,0.521,11.0884,0,11.729,0s1.1621,0.521,1.1621,1.1616V5.7754z
 M10.8013,5.541h1.8555V1.1616c0-0.5112-0.416-0.9272-0.9277-0.9272s-0.9277,0.416-0.9277,0.9272V5.541z"></path>
</g>
<g>
<path class="energy-electric-line-dark " d="M9.0396,21.3687c-0.0645,0-0.1172-0.0527-0.1172-0.1172v-3.6533H6.2988v3.6533
c0,0.0645-0.0527,0.1172-0.1172,0.1172s-0.1172-0.0527-0.1172-0.1172v-3.8877h3.0923v3.8877
C9.1567,21.3159,9.104,21.3687,9.0396,21.3687z"></path>
</g>
<g>
<path class="energy-electric-line-dark " d="M14.0708,7.7036h-3.3867c-0.0645,0-0.1172-0.0527-0.1172-0.1172s0.0527-0.1172,0.1172-0.1172h3.3867
c0.0645,0,0.1172,0.0527,0.1172,0.1172S14.1353,7.7036,14.0708,7.7036z"></path>
</g>
<g>
<path class="energy-electric-line-dark " d="M6.9268,14.5288c-0.0229,0-0.0459-0.0068-0.0659-0.0205c-0.0532-0.0361-0.0674-0.1094-0.0308-0.1621
l1.397-2.0488l-1.7544,0.3828l1.7847-2.666c0.0361-0.0537,0.1079-0.0693,0.1621-0.0322c0.0537,0.0356,0.0684,0.1084,0.0322,0.1621
l-1.4614,2.1846l1.7612-0.3848l-1.728,2.5342C7.001,14.5112,6.9639,14.5288,6.9268,14.5288z"></path>
</g>
</g>
<g id="Layer_1" class="energy-electric-hover ">
<path class="energy-electric-hover02" d="M7.2057,7.5862H1.0068c-0.4913,0-0.8896-0.3983-0.8896-0.8896V6.5477c0-0.4913,0.3983-0.8896,0.8896-0.8896
H14.214c0.4914,0,0.8896,0.3983,0.8896,0.8896v0.1488c0,0.4913-0.3983,0.8896-0.8896,0.8896h-0.1431v3.9331
c0,3.2926-2.6692,5.9618-5.9617,5.9618H7.1117c-3.2926,0-5.9618-2.6692-5.9618-5.9618V7.5862"></path>
<path class="energy-electric-hover03" d="M3.4915,0.117L3.4915,0.117c-0.577,0-1.0447,0.4677-1.0447,1.0447v4.4964h2.0894V1.1617
C4.5363,0.5848,4.0685,0.117,3.4915,0.117z"></path>
<path class="energy-electric-hover03" d="M11.7292,0.117L11.7292,0.117c0.577,0,1.0447,0.4677,1.0447,1.0447v4.4964h-2.0894V1.1617
C10.6845,0.5848,11.1523,0.117,11.7292,0.117z"></path>
<polyline class="energy-electric-hover03" points="9.0394,21.2517 9.0394,17.4811 6.1814,17.4811 6.1814,21.2517 "></polyline>
<line class="energy-electric-hover03" x1="14.0709" y1="7.5862" x2="10.6845" y2="7.5862"></line>
<polyline class="energy-electric-hover04" points="8.3545,10.079 6.7316,12.504 8.4892,12.1209 6.9269,14.4118 "></polyline>
</g>
</svg>