<svg xmlns="http://www.w3.org/2000/svg" viewBox="0 0 23.8224 26.4584">
<style type="text/css">
.hvac-line-dark{
 fill:#393939;
 }
.hvac-hover{
 display:none;
 }
.hvac-hover02 {
 display:inline;
 fill:#C03C3B;
 stroke:#C03C3B;
 stroke-width:0.3066;
 stroke-miterlimit:10;
 }
</style>
<g id="Layer_2">
<g>
<path class="hvac-line-dark" d="M12.4253,26.458h-1.0288c-0.5757,0-1.0444-0.4688-1.0444-1.0439v-2.3691l-1.2993,1.2988
c-0.125,0.126-0.3052,0.1992-0.4932,0.2002c-0.0005,0-0.001,0-0.0015,0c-0.1885,0-0.3691-0.0732-0.4961-0.2002l-0.4858-0.4854
c-0.1328-0.1328-0.2056-0.3086-0.2056-0.4961s0.0728-0.3633,0.2056-0.4961l2.7759-2.7754v-4.1914L6.6997,17.959l-1.0542,3.7803
c-0.1025,0.3662-0.4971,0.5869-0.8638,0.4863L4.1216,22.041c-0.1802-0.0498-0.3301-0.167-0.4224-0.3311
c-0.0923-0.1631-0.1152-0.3516-0.0649-0.5313l0.4932-1.7686L2.064,20.5732c-0.4824,0.2734-1.1484,0.0879-1.4224-0.3965
l-0.5063-0.8975c-0.2822-0.502-0.104-1.1396,0.397-1.4229l2.063-1.1641l-1.7695-0.4932
c-0.3721-0.1035-0.5903-0.4912-0.4863-0.8633l0.1841-0.6611c0.0479-0.1748,0.1689-0.3271,0.3325-0.4199
c0.1646-0.0928,0.355-0.1162,0.5308-0.0674l3.7813,1.0537l3.5684-2.0122L5.168,11.2163L1.3867,12.27
c-0.1758,0.0483-0.3687,0.0239-0.5313-0.0679c-0.1631-0.0923-0.2842-0.2451-0.3325-0.4194l-0.1841-0.6616
c-0.1035-0.3721,0.1143-0.7593,0.4858-0.8628l1.77-0.4927L0.5322,8.6011C0.2891,8.4648,0.1138,8.2412,0.0391,7.9722
c-0.0752-0.2676-0.041-0.5493,0.0957-0.7935l0.5068-0.8975c0.1318-0.2334,0.3628-0.4102,0.6343-0.4854
c0.27-0.0747,0.5581-0.0425,0.7886,0.0894l2.063,1.1636L3.6343,5.2793C3.5303,4.9082,3.7485,4.521,4.1206,4.4165l0.6621-0.1846
c0.3667-0.1025,0.7617,0.123,0.8628,0.4854l1.0542,3.7822l3.6523,2.0596V6.3672L7.5762,3.5918
C7.4434,3.4595,7.3706,3.2832,7.3706,3.0962c0-0.1875,0.0732-0.3638,0.2056-0.4961L8.062,2.1143
c0.127-0.127,0.3076-0.1997,0.4956-0.1997c0.001,0,0.0015,0,0.0024,0C8.748,1.915,8.9282,1.9883,9.0537,2.1157l1.2983,1.2979
V1.0439C10.352,0.4683,10.8208,0,11.3965,0h1.0288c0.5762,0,1.0449,0.4683,1.0449,1.0439v2.3696l1.2988-1.2993
c0.2686-0.2686,0.7207-0.2695,0.9912,0l0.4863,0.4863c0.2725,0.2734,0.2725,0.7178,0,0.9912l-2.7764,2.7754v4.1919l3.6523-2.0596
l1.0527-3.7813c0.1055-0.3662,0.5039-0.5889,0.8643-0.4863l0.6621,0.1846c0.3701,0.1045,0.5879,0.4912,0.4863,0.8618
l-0.4932,1.7705l2.0635-1.1641c0.2285-0.1309,0.5176-0.1646,0.7891-0.0879c0.2715,0.0752,0.502,0.252,0.6328,0.4844l0.5059,0.8975
c0.1377,0.2407,0.1729,0.5229,0.0977,0.793c-0.0752,0.2695-0.251,0.4932-0.4932,0.6299l-2.0645,1.1641l1.7705,0.4922
c0.1816,0.0508,0.332,0.1694,0.4229,0.3335c0.0918,0.1631,0.1133,0.3521,0.0625,0.5317l-0.1836,0.6602
c-0.0479,0.1748-0.1699,0.3281-0.333,0.4204c-0.166,0.0923-0.3535,0.1162-0.5303,0.0664l-3.7813-1.0537l-3.5684,2.0127
l3.5674,2.0122l3.7832-1.0537c0.1729-0.0498,0.3662-0.0254,0.5303,0.0684c0.1631,0.0928,0.2842,0.2461,0.332,0.4199l0.1846,0.6611
c0.0508,0.1777,0.0273,0.3662-0.0635,0.5293c-0.0918,0.165-0.2422,0.2832-0.4229,0.333l-1.7705,0.4932l2.0645,1.1641
c0.2432,0.1377,0.418,0.3613,0.4922,0.6299c0.0762,0.2686,0.041,0.5508-0.0977,0.7939l-0.5049,0.8965
c-0.2715,0.4844-0.9346,0.6709-1.4219,0.3965l-2.0635-1.1631l0.4932,1.7686c0.1016,0.3721-0.1162,0.7588-0.4863,0.8623
l-0.6621,0.1846c-0.3613,0.1006-0.7607-0.1201-0.8633-0.4844l-1.0537-3.7822l-3.6523-2.0596v4.1914l2.7764,2.7764
c0.1318,0.1318,0.2051,0.3076,0.2051,0.4941c0,0.1885-0.0723,0.3643-0.2051,0.4971l-0.4863,0.4854
c-0.2695,0.2666-0.7207,0.2686-0.9912,0l-1.2988-1.2988v2.3691C13.4702,25.9893,13.0015,26.458,12.4253,26.458z M10.6587,22.3047
v3.1094c0,0.4063,0.3311,0.7373,0.7378,0.7373h1.0288c0.4072,0,0.7383-0.3311,0.7383-0.7373v-3.1094l1.8223,1.8223
c0.1475,0.1455,0.4121,0.1445,0.5576,0l0.4863-0.4854c0.0742-0.0742,0.1152-0.1738,0.1152-0.2793s-0.041-0.2041-0.1152-0.2783
l-2.8662-2.8662V15.374l4.2207,2.3799l0.0166,0.0615l1.0703,3.8428c0.0566,0.2002,0.2861,0.3262,0.4863,0.2725l0.6621-0.1846
c0.208-0.0586,0.3301-0.2764,0.2734-0.4863l-0.6924-2.4805l2.708,1.5264c0.3447,0.1963,0.8125,0.0625,1.0039-0.2793l0.5059-0.8975
c0.0986-0.1719,0.123-0.3701,0.0693-0.5596c-0.0527-0.1904-0.1758-0.3486-0.3477-0.4453l-2.709-1.5273l2.4834-0.6924
c0.1016-0.0283,0.1855-0.0947,0.2373-0.1865c0.0518-0.0928,0.0645-0.1982,0.0361-0.2979l-0.1846-0.6621
c-0.0273-0.0967-0.0957-0.1826-0.1875-0.2344c-0.0928-0.0527-0.2021-0.0684-0.2979-0.041l-3.9043,1.0889l-4.1533-2.3423
l4.1523-2.3418l3.9053,1.0879c0.0986,0.0288,0.2021,0.0146,0.2969-0.0386c0.0928-0.0522,0.1611-0.1382,0.1885-0.2354L23.187,11.04
c0.0283-0.1016,0.0166-0.208-0.0352-0.2998c-0.0508-0.0923-0.1357-0.1582-0.2373-0.187l-2.4834-0.6909l2.709-1.5278
c0.1709-0.0967,0.2949-0.2549,0.3486-0.4453c0.0527-0.1899,0.0273-0.3887-0.0693-0.5591l-0.5068-0.8984
c-0.0908-0.1621-0.2539-0.2856-0.4473-0.3394c-0.1924-0.0542-0.3945-0.0322-0.5566,0.0591l-2.708,1.5283l0.6924-2.4829
c0.0566-0.2085-0.0664-0.4263-0.2744-0.4854l-0.6611-0.1846c-0.2031-0.0571-0.4297,0.0732-0.4873,0.2749l-1.0859,3.9028
l-4.2207,2.3799V6.2402l2.8662-2.8652c0.1533-0.1538,0.1533-0.4038,0-0.5576l-0.4863-0.4863c-0.1465-0.146-0.4102-0.1445-0.5576,0
l-1.8223,1.8228V1.0439c0-0.4067-0.3311-0.7373-0.7383-0.7373h-1.0288c-0.4067,0-0.7378,0.3306-0.7378,0.7373v3.1099L8.8364,2.332
C8.7671,2.2617,8.666,2.2217,8.5591,2.2212C8.438,2.2256,8.3486,2.2607,8.2788,2.3311L7.793,2.8174
C7.7183,2.8916,7.6772,2.9907,7.6772,3.0962c0,0.105,0.041,0.2041,0.1157,0.2788l2.8657,2.8652v4.8442L6.438,8.7046L6.4214,8.6431
L5.3506,4.7998C5.2939,4.5991,5.0659,4.4692,4.8638,4.5273L4.2031,4.7114c-0.209,0.0591-0.332,0.2769-0.2739,0.4854l0.6924,2.4829
l-2.708-1.5278C1.7515,6.0605,1.5483,6.0386,1.3579,6.0913C1.1641,6.145,1.0005,6.269,0.9082,6.4316L0.4018,7.3291
C0.3057,7.5015,0.2812,7.7007,0.334,7.8901C0.3872,8.0796,0.5107,8.2378,0.6826,8.334l2.708,1.5283l-2.4834,0.6914
c-0.2085,0.0581-0.3311,0.2759-0.2729,0.4854l0.1846,0.6616c0.0264,0.0967,0.0952,0.1821,0.1875,0.2344
c0.0928,0.0527,0.2036,0.0679,0.2979,0.04l3.9038-1.0879l4.1523,2.3418L5.208,15.5713l-0.061-0.0176l-3.8428-1.0713
c-0.0967-0.0264-0.2056-0.0127-0.2974,0.04c-0.0928,0.0518-0.1616,0.1377-0.188,0.2344L0.6343,15.418
c-0.0278,0.1016-0.0151,0.208,0.0366,0.2998s0.1357,0.1582,0.2368,0.1865l2.4824,0.6924L0.6826,18.124
c-0.3535,0.1992-0.4795,0.6504-0.2803,1.0049l0.5059,0.8975c0.1934,0.3418,0.6626,0.4727,1.0054,0.2793l2.708-1.5264
l-0.6924,2.4814c-0.0278,0.1006-0.0151,0.207,0.0371,0.2988c0.0518,0.0918,0.1362,0.1582,0.2373,0.1865l0.6606,0.1846
c0.2017,0.0547,0.4287-0.0723,0.4863-0.2734l1.0874-3.9033l4.2207-2.3799v4.8438L7.793,23.083
c-0.0747,0.0742-0.1157,0.1738-0.1157,0.2793s0.041,0.2051,0.1157,0.2793l0.4858,0.4854
c0.0698,0.0703,0.1719,0.1104,0.2793,0.1104c0,0,0.0005,0,0.001,0c0.1069-0.001,0.2075-0.041,0.2764-0.1094L10.6587,22.3047z"></path>
</g>
<g>
</g>
<g>
</g>
</g>
<g id="Layer_1" class="hvac-hover">
<path class="hvac-hover02 " d="M23.2152,17.9898l-2.3863-1.345l2.1271-0.5929c0.1413-0.0396,0.2587-0.132,0.3302-0.2603
c0.0712-0.1275,0.0885-0.275,0.0489-0.4139l-0.1841-0.6612c-0.0783-0.284-0.3894-0.4609-0.6737-0.3815l-3.8442,1.0708
l-3.8598-2.1767l3.8598-2.1775l3.8437,1.0708c0.2853,0.081,0.5961-0.0972,0.6739-0.3804l0.1841-0.6609
c0.0398-0.1405,0.0226-0.288-0.0489-0.4158c-0.0715-0.1281-0.1889-0.2202-0.3305-0.2598l-2.1265-0.5919l2.3863-1.3461
c0.2074-0.1169,0.357-0.3076,0.4208-0.5371c0.0638-0.2292,0.034-0.4699-0.0834-0.6766l-0.5061-0.8976
c-0.2324-0.4125-0.7999-0.5722-1.2132-0.3382l-2.3852,1.346l0.5921-2.1265c0.0797-0.2895-0.0903-0.5919-0.3799-0.6739
l-0.662-0.1844c-0.2829-0.0789-0.594,0.0954-0.6755,0.3799L17.253,8.6021l-3.9364,2.2198V6.3038l2.8217-2.8204
c0.213-0.2136,0.213-0.561-0.0003-0.7746L15.652,2.2229c-0.2067-0.2067-0.5679-0.2067-0.7746,0l-1.5607,1.5607V1.0439
c0-0.4909-0.3998-0.8904-0.8912-0.8904h-1.0289c-0.4914,0-0.8912,0.3995-0.8912,0.8904v2.7396L8.9447,2.2234
C8.7396,2.0162,8.377,2.0162,8.1706,2.2229L7.6844,2.7088C7.5811,2.8121,7.524,2.9497,7.524,3.0961
c0,0.1464,0.0571,0.284,0.1604,0.3873l2.8209,2.8204v4.5181L6.569,8.6021L5.4979,4.7588C5.4187,4.4761,5.1077,4.3021,4.8237,4.3794
L4.162,4.5641C3.8713,4.6456,3.7008,4.9482,3.7819,5.2382l0.5926,2.126L1.989,6.0185C1.5748,5.7831,1.0082,5.9433,0.7747,6.3564
L0.2686,7.254c-0.1169,0.2077-0.1461,0.4481-0.082,0.6774c0.064,0.2293,0.2135,0.4197,0.421,0.5363l2.385,1.3461l-2.1262,0.5919
c-0.2904,0.0813-0.4606,0.3838-0.3796,0.6745l0.1844,0.6614c0.0783,0.2845,0.39,0.4604,0.6747,0.3812l3.842-1.0711l3.8606,2.1775
l-3.8606,2.1767L1.3453,14.335c-0.2853-0.08-0.5961,0.098-0.6742,0.3807l-0.1844,0.6617c-0.081,0.2904,0.089,0.593,0.3799,0.6748
l2.126,0.5926l-2.3853,1.345c-0.4274,0.2417-0.5794,0.786-0.3387,1.214l0.5063,0.8976c0.2335,0.4125,0.8007,0.5714,1.2138,0.3382
l2.3857-1.3452l-0.5926,2.1249c-0.0811,0.2906,0.0895,0.5932,0.3807,0.6745l0.6609,0.184
c0.2824,0.0792,0.5951-0.0959,0.6747-0.3796l1.0708-3.8418l3.9364-2.2198v4.5179L7.6844,22.975
c-0.1033,0.1033-0.1604,0.2409-0.1604,0.3873c0,0.1466,0.0571,0.2842,0.1604,0.3876l0.4859,0.4851
c0.2069,0.2072,0.5698,0.2067,0.7738,0l1.5612-1.5602v2.7391c0,0.4914,0.3998,0.8913,0.8912,0.8913h1.0289
c0.4914,0,0.8912-0.3998,0.8912-0.8913V22.675l1.5607,1.5599c0.2067,0.2067,0.5679,0.2064,0.7746,0.0003l0.4862-0.4856
c0.2136-0.2136,0.2136-0.5608,0-0.7743l-2.8215-2.8207v-4.5179l3.9364,2.2198l1.0703,3.8431
c0.0805,0.283,0.3934,0.4564,0.675,0.3785l0.6625-0.1846c0.289-0.0813,0.459-0.3836,0.3793-0.6742l-0.5921-2.1249l2.3849,1.3449
c0.1334,0.0755,0.2845,0.1153,0.437,0.1153c0.3211,0,0.6187-0.1737,0.7765-0.4535l0.5058-0.8968
c0.1177-0.2074,0.1474-0.4481,0.0834-0.6774C23.572,18.298,23.4227,18.1072,23.2152,17.9898z"></path>
</g>
</svg>