<svg xmlns="http://www.w3.org/2000/svg" viewBox="0 0 20.284 24.4855">
 <style type="text/css">
 .industrial-equipment-line-dark {
 fill: #C03C3B;
 }
 .industrial-equipment-hover {
 display:none;
 }
 .industrial-equipment-hover02{
 display:inline;
 fill:#C03C3B;
 stroke:#C03C3B;
 stroke-width:0.25;
 stroke-miterlimit:10;
 }
 .industrial-equipment-hover03{
 display:inline;
 fill:none;
 stroke:#C03C3B;
 stroke-width:0.25;
 stroke-miterlimit:10;
 }
 .industrial-equipment-hover04{
 display:inline;
 fill:#FFFFFF;
 stroke:#C03C3B;
 stroke-width:0.25;
 stroke-miterlimit:10;
 }
 .industrial-equipment-hover05 {
 display:inline;
 fill:none;
 stroke:#FFFFFF;
 stroke-width:0.25;
 stroke-miterlimit:10;
 }
 </style>
<g id="Layer_2">
<g>
<g>
<path class="industrial-equipment-line-dark " d="M6.6895,24.4844c-0.2275,0-0.4492-0.1172-0.5708-0.3281l-0.3345-0.5791
c-0.5659,0.1328-1.1582,0.1328-1.7266,0l-0.334,0.5791c-0.1821,0.3145-0.5845,0.4229-0.8984,0.2412l-0.7295-0.4219
c-0.1519-0.0879-0.2607-0.2295-0.3062-0.3994c-0.0454-0.1689-0.022-0.3467,0.0654-0.498l0.3335-0.5771
c-0.3994-0.4238-0.6958-0.9385-0.8628-1.498H0.6572C0.2949,21.0029,0,20.708,0,20.3457v-0.8418
c0-0.3623,0.2949-0.6572,0.6572-0.6572h0.6685c0.167-0.5596,0.4634-1.0742,0.8628-1.498L1.855,16.7715
c-0.0874-0.1514-0.1108-0.3291-0.0654-0.498c0.0454-0.1699,0.1543-0.3115,0.3062-0.3994l0.7295-0.4219
c0.314-0.1816,0.7163-0.0723,0.8984,0.2412l0.334,0.5791c0.5684-0.1328,1.1606-0.1328,1.7266,0l0.3345-0.5791
c0.1812-0.3135,0.583-0.4229,0.8979-0.2412l0.7295,0.4219c0.1519,0.0879,0.2607,0.2285,0.3062,0.3984
c0.0459,0.1699,0.0225,0.3477-0.0654,0.499l-0.3335,0.5771c0.3994,0.4238,0.6958,0.9385,0.8628,1.498h0.6685
c0.3623,0,0.6572,0.2949,0.6572,0.6572v0.8418c0,0.3623-0.2949,0.6572-0.6572,0.6572H8.5161
c-0.167,0.5596-0.4634,1.0742-0.8628,1.498l0.3335,0.5771c0.0879,0.1514,0.1113,0.3291,0.0654,0.499
c-0.0454,0.1699-0.1543,0.3105-0.3062,0.3984l-0.7295,0.4219C6.9136,24.457,6.8008,24.4844,6.6895,24.4844z M0.6572,19.0967
c-0.2246,0-0.4072,0.1826-0.4072,0.4072v0.8418c0,0.2246,0.1826,0.4072,0.4072,0.4072h0.8584l0.0249,0.0918
c0.1587,0.585,0.4673,1.1201,0.8921,1.5488L2.5,22.4609l-0.4282,0.7422c-0.0547,0.0938-0.0688,0.2031-0.041,0.3086
c0.0283,0.1055,0.0957,0.1934,0.1899,0.2471l0.7295,0.4219c0.1953,0.1133,0.4453,0.0459,0.5566-0.1494l0.4292-0.7441
l0.0923,0.0244c0.584,0.1543,1.2012,0.1543,1.7852,0l0.0923-0.0244l0.4297,0.7441c0.1113,0.1953,0.3613,0.2627,0.5562,0.1494
l0.7295-0.4219c0.0942-0.0537,0.1616-0.1416,0.1899-0.2471c0.0278-0.1045,0.0137-0.2148-0.041-0.3086l-0.4282-0.7422
l0.0674-0.0674c0.4248-0.4287,0.7334-0.9639,0.8921-1.5488l0.0249-0.0918h0.8584c0.2246,0,0.4072-0.1826,0.4072-0.4072v-0.8418
c0-0.2246-0.1826-0.4072-0.4072-0.4072H8.3262l-0.0249-0.0918c-0.1587-0.585-0.4673-1.1201-0.8921-1.5488l-0.0674-0.0674
L7.77,16.6465c0.0547-0.0938,0.0688-0.2041,0.041-0.3086c-0.0283-0.1055-0.0957-0.1934-0.1899-0.2471l-0.7295-0.4219
c-0.1948-0.1133-0.4448-0.0449-0.5562,0.1494l-0.4297,0.7441l-0.0923-0.0244c-0.584-0.1543-1.2012-0.1543-1.7852,0L3.936,16.5625
l-0.4292-0.7441c-0.1118-0.1953-0.3643-0.2637-0.5566-0.1494l-0.7295,0.4219c-0.0942,0.0537-0.1616,0.1416-0.1899,0.2471
c-0.0278,0.1055-0.0137,0.2148,0.041,0.3086L2.5,17.3887L2.4326,17.456c-0.4248,0.4287-0.7334,0.9639-0.8921,1.5488
l-0.0249,0.0918H0.6572z"></path>
</g>
<g>
<path class="industrial-equipment-line-dark " d="M16.1323,18.29c-0.0723,0-0.1455-0.0088-0.2178-0.0283c-0.2148-0.0576-0.3945-0.1963-0.5059-0.3887
l-0.46-0.7969c-0.7676,0.1836-1.5713,0.1836-2.3369,0l-0.46,0.7969c-0.2314,0.3955-0.7402,0.5352-1.1387,0.3057l-0.9707-0.5605
c-0.3975-0.2295-0.5342-0.7402-0.3047-1.1387l0.459-0.7939c-0.5444-0.5703-0.9463-1.2676-1.168-2.0269H8.1094
c-0.4595,0-0.833-0.3735-0.833-0.833v-1.1206c0-0.4595,0.3735-0.833,0.833-0.833h0.9194c0.2217-0.7583,0.623-1.4556,1.168-2.0269
l-0.459-0.7944C9.5083,7.6528,9.645,7.1426,10.0425,6.9131l0.9707-0.5605c0.3955-0.2285,0.9082-0.0933,1.1387,0.3052l0.46,0.7974
c0.7656-0.1855,1.5693-0.1855,2.3369,0l0.46-0.7974c0.1113-0.1929,0.291-0.3306,0.5059-0.3882
c0.2139-0.0581,0.4395-0.0273,0.6318,0.083l0.9707,0.5605c0.1924,0.1113,0.3311,0.291,0.3887,0.5059s0.0283,0.4395-0.083,0.6318
l-0.46,0.7944c0.5449,0.5703,0.9463,1.2676,1.1689,2.0269h0.9189c0.459,0,0.833,0.3735,0.833,0.833v1.1206
c0,0.4595-0.374,0.833-0.833,0.833h-0.9189c-0.2227,0.7603-0.624,1.4575-1.1689,2.0269l0.46,0.7939
c0.2295,0.3984,0.0928,0.9092-0.3057,1.1387l-0.9707,0.5605C16.4185,18.2529,16.2759,18.29,16.1323,18.29z M15.0698,16.7861
l0.5557,0.9619c0.0781,0.1348,0.2031,0.2314,0.3545,0.2725c0.1484,0.0371,0.3066,0.0186,0.4414-0.0586l0.9707-0.5605
c0.1348-0.0781,0.2314-0.2031,0.2715-0.3545c0.041-0.1504,0.0205-0.3076-0.0576-0.4424l-0.5547-0.959l0.0674-0.0674
c0.5703-0.5742,0.9844-1.292,1.1973-2.0771l0.0254-0.0923h1.1094c0.3213,0,0.583-0.2617,0.583-0.583v-1.1206
c0-0.3213-0.2617-0.583-0.583-0.583h-1.1094l-0.0254-0.0923c-0.2129-0.7842-0.627-1.5024-1.1973-2.0771l-0.0674-0.0679
l0.5547-0.959c0.0781-0.1348,0.0986-0.2915,0.0586-0.4419c-0.041-0.1509-0.1377-0.2764-0.2725-0.354l-0.9707-0.5605
c-0.1348-0.0776-0.291-0.0981-0.4424-0.0581c-0.1504,0.04-0.2764,0.1367-0.3535,0.2715l-0.5557,0.9614L14.978,7.7202
c-0.7852-0.2051-1.6113-0.2051-2.3965,0l-0.0918,0.0239l-0.5547-0.9614c-0.1621-0.2783-0.5176-0.3745-0.7969-0.2134
l-0.9707,0.5605C9.8892,7.2905,9.7939,7.6474,9.9546,7.9258l0.5537,0.959l-0.0674,0.0679
c-0.5708,0.5757-0.9844,1.2939-1.1968,2.0771l-0.0249,0.0923H8.1094c-0.3213,0-0.583,0.2617-0.583,0.583v1.1206
c0,0.3213,0.2617,0.583,0.583,0.583h1.1099l0.0249,0.0923c0.2124,0.7842,0.6265,1.502,1.1968,2.0771l0.0674,0.0674l-0.5537,0.959
c-0.1606,0.2793-0.0654,0.6367,0.2129,0.7969l0.9707,0.5605c0.2783,0.1621,0.6357,0.0645,0.7969-0.2139l0.5547-0.9619
l0.0918,0.0244c0.7852,0.2051,1.6113,0.2051,2.3965,0L15.0698,16.7861z"></path>
</g>
<g>
<path class="industrial-equipment-line-dark " d="M3.5063,9.374c-0.0972,0-0.1934-0.0215-0.2832-0.0645L2.4634,8.9468
c-0.1587-0.0752-0.2783-0.208-0.3369-0.374c-0.0586-0.165-0.0493-0.3438,0.0264-0.502l0.2881-0.6035
c-0.4331-0.3916-0.7695-0.8804-0.98-1.4233L0.7964,6.0962C0.6216,6.1147,0.4512,6.0547,0.3179,5.9409
c-0.1333-0.1143-0.2144-0.2734-0.228-0.4482L0.0239,4.6523C0.0103,4.4775,0.0654,4.3076,0.1792,4.1738
c0.1143-0.1333,0.2734-0.2144,0.4482-0.228l0.6675-0.0522c0.1235-0.5688,0.3789-1.104,0.7432-1.5581L1.6592,1.7842
c-0.2051-0.2988-0.1289-0.709,0.1694-0.9141L2.5229,0.393c0.1455-0.0991,0.3193-0.1392,0.4922-0.1045
C3.188,0.3203,3.3374,0.4175,3.437,0.5625l0.3779,0.5493C4.3691,0.935,4.9614,0.8887,5.5371,0.9775L5.8252,0.375
c0.0757-0.1587,0.2085-0.2783,0.374-0.3369c0.167-0.0591,0.3442-0.0488,0.5024,0.0269l0.7603,0.3628
c0.3271,0.1558,0.4663,0.5488,0.3101,0.876L7.4839,1.9072c0.4331,0.3916,0.7695,0.8804,0.98,1.4233l0.6646-0.0522
c0.1802-0.0112,0.3457,0.0415,0.4785,0.1553C9.7402,3.5478,9.8213,3.707,9.835,3.8818l0.0659,0.8403
c0.0142,0.1748-0.041,0.3442-0.1548,0.478C9.6318,5.334,9.4727,5.415,9.2974,5.4287l-0.667,0.0522
C8.5063,6.0503,8.251,6.5854,7.8867,7.039l0.3789,0.5513c0.2051,0.2988,0.1289,0.709-0.1694,0.9141L7.4019,8.9814
C7.2563,9.081,7.0806,9.1152,6.9097,9.0859C6.7373,9.0542,6.5874,8.9565,6.4878,8.812L6.1104,8.2627
c-0.5537,0.1772-1.147,0.2231-1.7227,0.1338l-0.2881,0.603c-0.0757,0.1587-0.2085,0.2783-0.374,0.3369
C3.6538,9.3618,3.5796,9.374,3.5063,9.374z M1.6304,5.7798l0.0322,0.0903C1.8662,6.438,2.2168,6.9468,2.6758,7.3413l0.0723,0.062
L2.3784,8.1782c-0.0469,0.0981-0.0527,0.209-0.0161,0.3115c0.0361,0.1025,0.1104,0.1846,0.2085,0.2314L3.3311,9.084
c0.0986,0.0474,0.208,0.0537,0.311,0.0166C3.7446,9.0644,3.8271,8.9902,3.874,8.8921l0.3696-0.7749l0.0942,0.0171
c0.5952,0.1089,1.2119,0.0615,1.7808-0.1382L6.209,7.9648l0.4849,0.7056c0.0615,0.0898,0.1543,0.1499,0.2617,0.1699
c0.1079,0.019,0.2148-0.0029,0.3047-0.0649l0.6943-0.4771c0.1851-0.127,0.2319-0.3813,0.105-0.5664L7.5732,7.0244l0.062-0.0728
c0.3892-0.4609,0.6553-1.0181,0.769-1.6113l0.0176-0.0938l0.856-0.0669c0.1084-0.0088,0.207-0.0591,0.2778-0.1416
c0.0708-0.083,0.105-0.188,0.0962-0.2964L9.5859,3.9013C9.5771,3.7929,9.5273,3.6943,9.4443,3.624
C9.3618,3.5527,9.251,3.518,9.1479,3.5273L8.2944,3.5947L8.2622,3.5044C8.0586,2.9365,7.708,2.4277,7.249,2.0332l-0.0723-0.062
l0.3696-0.7749C7.6431,0.9936,7.5571,0.75,7.3545,0.6533L6.5938,0.2905c-0.0977-0.0459-0.207-0.0518-0.311-0.0166
C6.1802,0.31,6.0977,0.3843,6.0508,0.4824L5.6812,1.2568L5.5869,1.2397c-0.5967-0.1094-1.2124-0.061-1.7803,0.1387L3.7163,1.4096
L3.231,0.7041C3.1694,0.6142,3.0767,0.5537,2.9697,0.5342c-0.106-0.0176-0.2153,0.0034-0.3052,0.0649L1.9702,1.0762
c-0.1851,0.127-0.2319,0.3813-0.105,0.5664l0.4863,0.7075l-0.062,0.0728C1.8999,2.8838,1.6343,3.4409,1.521,4.0342L1.5034,4.1279
L0.647,4.1948c-0.1084,0.0088-0.207,0.0586-0.2773,0.1416c-0.0708,0.0825-0.105,0.188-0.0967,0.2964l0.0659,0.8403
c0.0088,0.1084,0.0586,0.207,0.1416,0.2773C0.563,5.8218,0.6743,5.855,0.7769,5.8471L1.6304,5.7798z"></path>
</g>
<g>
<path class="industrial-equipment-line-dark " d="M4.9624,6.1865c-0.8267,0-1.4995-0.6729-1.4995-1.4995s0.6729-1.499,1.4995-1.499
s1.4995,0.6724,1.4995,1.499S5.7891,6.1865,4.9624,6.1865z M4.9624,3.438c-0.689,0-1.2495,0.5605-1.2495,1.249
c0,0.689,0.5605,1.2495,1.2495,1.2495S6.2119,5.376,6.2119,4.687C6.2119,3.9985,5.6514,3.438,4.9624,3.438z"></path>
</g>
<g>
<path class="industrial-equipment-line-dark " d="M4.9209,21.4238c-0.8267,0-1.4995-0.6729-1.4995-1.499s0.6729-1.499,1.4995-1.499
s1.4995,0.6729,1.4995,1.499S5.7476,21.4238,4.9209,21.4238z M4.9209,18.6758c-0.689,0-1.2495,0.5605-1.2495,1.249
s0.5605,1.249,1.2495,1.249s1.2495-0.5605,1.2495-1.249S5.6099,18.6758,4.9209,18.6758z"></path>
</g>
<g>
<path class="industrial-equipment-line-dark " d="M13.7798,13.6255c-0.3477,0-0.6963-0.1323-0.9619-0.3975c-0.5313-0.5308-0.5313-1.3945-0.001-1.9253
c0.5322-0.5303,1.3965-0.5298,1.9258,0l0,0c0.2568,0.2573,0.3984,0.5991,0.3984,0.9629c0,0.3633-0.1416,0.7051-0.3994,0.9624
C14.4771,13.4931,14.1284,13.6255,13.7798,13.6255z M13.7798,11.1548c-0.2842,0-0.5693,0.1084-0.7861,0.3247
c-0.4326,0.4331-0.4326,1.1387,0.001,1.5718c0.4346,0.4326,1.1396,0.4312,1.5703,0c0.2109-0.21,0.3262-0.4893,0.3262-0.7856
c0-0.2969-0.1152-0.5762-0.3252-0.7861h-0.001C14.3491,11.2632,14.0649,11.1548,13.7798,11.1548z"></path>
</g>
<g>
<path class="industrial-equipment-line-dark " d="M15.9116,14.3974l-0.1758-0.1777c0.5215-0.5215,0.8096-1.2158,0.8096-1.9541
c0-0.7388-0.2881-1.4331-0.8096-1.9551l0.1758-0.1768c0.5703,0.5693,0.8838,1.3262,0.8838,2.1318
C16.7954,13.0708,16.4819,13.8276,15.9116,14.3974z"></path>
</g>
<g>
<path class="industrial-equipment-line-dark " d="M11.6489,14.3974c-0.5703-0.5698-0.8838-1.3267-0.8838-2.1318c0-0.8057,0.3135-1.5625,0.8838-2.1318
l0.1758,0.1768c-0.5215,0.522-0.8096,1.2163-0.8096,1.9551c0,0.7383,0.2881,1.4326,0.8096,1.9541L11.6489,14.3974z"></path>
</g>
</g>
</g>
<g id="Layer_1" class="industrial-equipment-hover ">
<path class="industrial-equipment-hover02" d="M15.0095,16.9315l0.5076,0.8792c0.1955,0.3386,0.6285,0.4547,0.9671,0.2592l0.9705-0.5603
c0.3386-0.1955,0.4547-0.6285,0.2592-0.9672l-0.506-0.8764c0.6096-0.6144,1.017-1.3521,1.2287-2.1323h1.0143
c0.391,0,0.708-0.317,0.708-0.708v-1.1207c0-0.391-0.317-0.708-0.708-0.708h-1.0143c-0.2117-0.7801-0.6191-1.5178-1.2287-2.1323
l0.506-0.8764c0.1955-0.3386,0.0795-0.7716-0.2592-0.9672L16.4842,6.461c-0.3386-0.1955-0.7716-0.0795-0.9671,0.2591
l-0.5076,0.8792c-0.8056-0.2114-1.6532-0.2114-2.4588,0L12.043,6.7201c-0.1955-0.3386-0.6285-0.4547-0.9672-0.2591l-0.9705,0.5603
C9.7667,7.2168,9.6507,7.6498,9.8462,7.9884l0.5059,0.8764c-0.6096,0.6144-1.017,1.3522-1.2287,2.1323H8.1092
c-0.391,0-0.708,0.317-0.708,0.708v1.1207c0,0.391,0.317,0.708,0.708,0.708h1.0143c0.2117,0.7801,0.6191,1.5179,1.2287,2.1323
l-0.5059,0.8764c-0.1955,0.3386-0.0795,0.7716,0.2591,0.9672l0.9705,0.5603c0.3386,0.1955,0.7716,0.0795,0.9672-0.2592
l0.5076-0.8792C13.3562,17.1429,14.2039,17.1429,15.0095,16.9315z"></path>
<path class="industrial-equipment-hover03" d="M5.8452,23.4329l0.3817,0.661c0.147,0.2546,0.4725,0.3418,0.7271,0.1948l0.7297-0.4213
c0.2546-0.147,0.3418-0.4725,0.1948-0.7271l-0.3804-0.6589c0.4583-0.4619,0.7646-1.0166,0.9238-1.6031h0.7626
c0.294,0,0.5323-0.2383,0.5323-0.5323v-0.8425c0-0.294-0.2383-0.5323-0.5323-0.5323H8.4219
c-0.1591-0.5865-0.4655-1.1412-0.9238-1.6031l0.3804-0.6589c0.147-0.2546,0.0598-0.5801-0.1948-0.7271L6.954,15.5608
c-0.2546-0.147-0.5801-0.0598-0.7271,0.1948l-0.3817,0.661c-0.6057-0.1589-1.2429-0.1589-1.8486,0l-0.3816-0.661
c-0.147-0.2546-0.4725-0.3418-0.7271-0.1948l-0.7297,0.4213c-0.2546,0.147-0.3418,0.4725-0.1948,0.7271l0.3804,0.6589
C1.8855,17.83,1.5791,18.3847,1.42,18.9712H0.6574c-0.294,0-0.5323,0.2383-0.5323,0.5323v0.8425
c0,0.294,0.2383,0.5323,0.5323,0.5323H1.42c0.1591,0.5865,0.4655,1.1412,0.9238,1.6031l-0.3804,0.6589
c-0.147,0.2546-0.0598,0.5801,0.1948,0.7271l0.7296,0.4213c0.2546,0.147,0.5801,0.0598,0.7271-0.1948l0.3816-0.661
C4.6023,23.5918,5.2396,23.5918,5.8452,23.4329z"></path>
<path class="industrial-equipment-hover03" d="M8.5266,5.3638l0.761-0.0598c0.2931-0.023,0.512-0.2793,0.489-0.5723l-0.066-0.84
c-0.023-0.2931-0.2793-0.512-0.5723-0.489L8.3798,3.4623c-0.2195-0.6126-0.5882-1.1279-1.049-1.5241L7.6592,1.25
c0.1266-0.2653,0.0141-0.583-0.2512-0.7097L6.6476,0.1775C6.3823,0.0509,6.0645,0.1633,5.938,0.4287L5.6096,1.1169
c-0.5979-0.109-1.2304-0.0713-1.8447,0.1433l-0.4308-0.627C3.1676,0.3908,2.8362,0.3294,2.5939,0.4959L1.8995,0.973
C1.6572,1.1395,1.5957,1.4708,1.7622,1.7131l0.4322,0.6291C1.7902,2.8204,1.5157,3.3956,1.3983,4.0106l-0.761,0.0598
c-0.2931,0.023-0.512,0.2792-0.489,0.5723l0.066,0.84c0.023,0.2931,0.2793,0.512,0.5723,0.489l0.7584-0.0596
C1.7647,6.5247,2.1334,7.04,2.5942,7.4362L2.2657,8.1245c-0.1266,0.2653-0.0141,0.583,0.2512,0.7096l0.7604,0.3629
c0.2653,0.1266,0.583,0.0142,0.7096-0.2512l0.3284-0.6883C4.9133,8.3665,5.5458,8.3289,6.16,8.1142l0.4308,0.6271
C6.7573,8.9836,7.0887,9.045,7.331,8.8786l0.6944-0.4771C8.2678,8.235,8.3292,7.9036,8.1628,7.6613L7.7305,7.0322
C8.1348,6.554,8.4092,5.9788,8.5266,5.3638z"></path>
<path class="industrial-equipment-hover03" d="M6.3369,4.6872c0-0.7591-0.6153-1.3744-1.3744-1.3744S3.5881,3.9282,3.5881,4.6872
s0.6153,1.3744,1.3744,1.3744S6.3369,5.4463,6.3369,4.6872z"></path>
<circle class="industrial-equipment-hover03" cx="4.9209" cy="19.9248" r="1.3744"></circle>
<path class="industrial-equipment-hover04" d="M14.6542,11.3913c-0.4828-0.4828-1.2655-0.4828-1.7482,0c-0.4828,0.4828-0.4828,1.2655,0,1.7482
c0.4828,0.4827,1.2655,0.4827,1.7482,0C15.1369,12.6568,15.1369,11.8741,14.6542,11.3913z"></path>
<path class="industrial-equipment-hover05" d="M15.8236,14.3089c1.1286-1.1286,1.1286-2.9584,0-4.087"></path>
<path class="industrial-equipment-hover05" d="M11.7366,10.222c-1.1286,1.1286-1.1286,2.9584,0,4.087"></path>
</g>
</svg>