<svg xmlns="http://www.w3.org/2000/svg" viewBox="0 0 125.9992 126">
<style type="text/css">
.st0{fill-rule:evenodd;clip-rule:evenodd;fill:#fff;}
</style>
<rect x="10.0078" y="64.7236" transform="matrix(0.9987 -0.05 0.05 0.9987 -3.2529 0.7804)" class="st0" width="7.9214" height="1.3378"></rect>
<path class="st0" d="M17.3121,69.7169c-0.0547-0.3849-0.18-0.6908-0.3719-0.9119c-0.1939-0.225-0.451-0.3129-0.7671-0.2659
c-0.3209,0.046-0.5428,0.205-0.6769,0.4771c-0.1301,0.2707-0.235,0.8229-0.3101,1.656c-0.0768,0.8297-0.2591,1.4769-0.5511,1.9358
c-0.2916,0.4601-0.7778,0.7401-1.4609,0.841c-0.686,0.1001-1.281-0.0779-1.7799-0.5309c-0.5029-0.453-0.8161-1.0981-0.9391-1.9349
c-0.1809-1.2271,0.083-2.3732,0.7872-3.4481l1.1191,0.682c-0.5709,0.8938-0.7943,1.768-0.6682,2.619
c0.0633,0.426,0.2039,0.75,0.425,0.9731c0.2182,0.2228,0.4799,0.3118,0.784,0.2679c0.3039-0.044,0.521-0.1939,0.654-0.4561
c0.1332-0.2611,0.227-0.6869,0.282-1.285c0.0499-0.5961,0.1148-1.0508,0.188-1.3668c0.0703-0.3169,0.1808-0.6041,0.3359-0.8632
c0.284-0.5148,0.7891-0.826,1.512-0.93c0.7242-0.108,1.322,0.072,1.792,0.5411c0.4692,0.4689,0.762,1.093,0.8771,1.8689
c0.0731,0.5031,0.0629,1.0111-0.0289,1.5281c-0.0902,0.5191-0.2591,0.978-0.5052,1.3799l-1.1007-0.5581
c0.1741-0.2619,0.3008-0.6018,0.3767-1.0168C17.3594,70.503,17.3691,70.1022,17.3121,69.7169z"></path>
<path class="st0" d="M18.8085,79.166c0.3696-0.6829,0.4357-1.3998,0.1956-2.1479c-0.2378-0.75-0.703-1.2951-1.4009-1.6409
c-0.4337-0.2149-0.8785-0.3164-1.3351-0.3045v-1.3714c0.6519-0.0079,1.2801,0.1494,1.885,0.4717
c0.989,0.5241,1.66,1.349,2.0172,2.4721c0.3591,1.1239,0.2888,2.1869-0.216,3.187c-0.5021,1.0001-1.3091,1.6761-2.4211,2.029
c-0.4309,0.1381-0.8527,0.2092-1.2651,0.2143v-1.3711c0.2786-0.0071,0.5615-0.0561,0.849-0.1482
C17.8765,80.314,18.4391,79.8522,18.8085,79.166z M16.2681,75.0727c-0.279,0.0071-0.5621,0.0567-0.8498,0.1483
c-0.758,0.2409-1.3241,0.7052-1.692,1.389c-0.3691,0.684-0.4332,1.402-0.1951,2.15c0.2362,0.7481,0.703,1.2952,1.4009,1.641
c0.4337,0.2132,0.879,0.3149,1.336,0.3033v1.3711c-0.6514,0.0077-1.2799-0.1496-1.8848-0.4725
c-0.989-0.525-1.6622-1.3487-2.0202-2.4718c-0.3578-1.122-0.2829-2.1841,0.2171-3.1859c0.5032-1,1.309-1.6752,2.4231-2.031
c0.4311-0.1372,0.8526-0.2081,1.2648-0.2129V75.0727z"></path>
<path class="st0" d="M21.6162,88.0514c0.2512,0.0227,0.4972-0.0351,0.739-0.1723c0.3492-0.203,0.58-0.504,0.6829-0.904
c0.1051-0.4011,0.047-0.7931-0.1718-1.1741c-0.2211-0.3841-0.5151-0.6358-0.8841-0.754c-0.1228-0.0397-0.2447-0.0612-0.366-0.0652
v-1.2183c0.222,0.0042,0.4439,0.0414,0.6659,0.1105c0.6692,0.212,1.2021,0.6571,1.593,1.3391
c0.635,1.101,0.5792,2.1421-0.1618,3.1269c-0.4292,0.561-0.9953,1.0431-1.7042,1.4502c-0.1335,0.0765-0.2648,0.148-0.3929,0.2146
V88.0514z M20.3712,87.169c0.2291,0.396,0.529,0.6642,0.9009,0.8022c0.1159,0.0431,0.2304,0.07,0.3441,0.0802v1.9534
c-0.5508,0.2849-1.0525,0.4768-1.5052,0.5734c-0.5567,0.1208-1.0499,0.131-1.4749,0.027c-0.8328-0.2021-1.4609-0.6752-1.887-1.4171
c-0.4289-0.7452-0.5819-1.5511-0.4649-2.4199l1.1892,0.0859c-0.0462,0.2279-0.0474,0.496-0.0071,0.8079
c0.04,0.3129,0.1179,0.568,0.2321,0.7642c0.3498,0.6089,0.8127,0.9399,1.3907,0.9918c0.5791,0.0491,1.2189-0.123,1.9242-0.5179
c-0.275-0.0601-0.5842-0.197-0.9221-0.413c-0.3371-0.216-0.6152-0.5099-0.83-0.883c-0.3518-0.6171-0.4451-1.2501-0.275-1.8989
c0.1721-0.654,0.595-1.1741,1.2731-1.563c0.4544-0.2622,0.9059-0.3878,1.3569-0.3787v1.2183
c-0.2429-0.0074-0.4825,0.0567-0.718,0.1922c-0.3529,0.2012-0.5871,0.4881-0.699,0.8521
C20.0872,86.3932,20.143,86.7722,20.3712,87.169z"></path>
<path class="st0" d="M25.1241,90.697c-0.2543,0.0363-0.5156,0.1114-0.7832,0.2245V89.56c0.2894-0.0808,0.5754-0.1264,0.8583-0.1369
c0.9181-0.034,1.7099,0.3711,2.3749,1.224c0.6641,0.849,0.8699,1.7161,0.6131,2.5951c-0.256,0.8827-0.8751,1.7079-1.8561,2.475
c-0.6798,0.5303-1.3428,0.8864-1.9902,1.0672v-1.3773c0.3784-0.1642,0.7721-0.4051,1.1803-0.7249
c0.701-0.549,1.171-1.11,1.408-1.684c0.2381-0.5732,0.1531-1.1231-0.2591-1.6472C26.2613,90.828,25.7471,90.6091,25.1241,90.697z
 M24.3409,90.9215c-0.3847,0.163-0.783,0.4048-1.1929,0.7257c-0.6956,0.5448-1.1639,1.1069-1.3969,1.688
c-0.2367,0.5828-0.1499,1.1359,0.2591,1.6588c0.411,0.5242,0.919,0.741,1.537,0.648c0.2565-0.0388,0.5213-0.117,0.7937-0.2349
v1.3773c-0.2897,0.0811-0.5763,0.127-0.8598,0.1378c-0.917,0.0368-1.707-0.3731-2.3729-1.2232
c-0.665-0.8529-0.8682-1.7158-0.6139-2.5991c0.2559-0.879,0.8747-1.7039,1.8578-2.4738c0.678-0.5295,1.3413-0.8855,1.9888-1.0661
V90.9215z"></path>
<path class="st0" d="M29.6941,96.0471c-0.1358,0.0406-0.2716,0.093-0.4076,0.1573v-1.3586
c0.0978-0.0275,0.1961-0.0507,0.2948-0.0697c0.9008-0.1721,1.7427,0.1139,2.5259,0.8569c0.7869,0.7421,1.118,1.5681,0.9939,2.478
c-0.12,0.9091-0.6101,1.817-1.467,2.7221c-0.7636,0.8073-1.548,1.3224-2.3476,1.5463v-1.3719
c0.4592-0.222,0.9229-0.5817,1.3926-1.0775c0.612-0.648,0.9941-1.2739,1.143-1.8768c0.1482-0.6021-0.017-1.133-0.5009-1.588
C30.8413,96.0091,30.2982,95.8691,29.6941,96.0471z M29.2865,96.2044c-0.4658,0.2197-0.9329,0.5777-1.4043,1.0747
c-0.6089,0.6409-0.9851,1.2699-1.133,1.879c-0.146,0.6109,0.0229,1.145,0.5048,1.6019c0.4822,0.4569,1.0211,0.5941,1.6132,0.4122
c0.1395-0.042,0.279-0.097,0.4193-0.1647v1.3719c-0.0964,0.027-0.1934,0.0502-0.2903,0.0686
c-0.902,0.171-1.7442-0.1139-2.5291-0.8557c-0.7849-0.7453-1.1151-1.5702-0.9918-2.4804c0.1199-0.9079,0.6097-1.8167,1.4658-2.7209
c0.7662-0.8059,1.5463-1.3201,2.3454-1.5452V96.2044z"></path>
<polygon class="st0" points="34.4345,97.986 36.7354,99.7171 31.9703,106.0449 30.9572,105.2821 35.0034,99.9039 33.7193,98.937 "></polygon>
<path class="st0" d="M41.4261,103.8319c-0.3438-0.1828-0.663-0.2599-0.9581-0.2358c-0.2937,0.0229-0.5179,0.178-0.667,0.46
c-0.1508,0.2849-0.1567,0.5599-0.0139,0.8269c0.142,0.2662,0.525,0.678,1.1512,1.2282c0.6281,0.5539,1.0397,1.084,1.2379,1.5889
c0.2001,0.5068,0.138,1.0661-0.186,1.6789c-0.3228,0.6089-0.813,0.9842-1.4771,1.1211c-0.6619,0.1389-1.366,0.008-2.1141-0.3849
c-1.0979-0.5783-1.8697-1.4681-2.3207-2.6711l1.2149-0.5032c0.3821,0.9891,0.9559,1.6841,1.7158,2.0863
c0.3833,0.2019,0.7271,0.2778,1.0401,0.2339c0.3092-0.0462,0.534-0.203,0.6772-0.474c0.1408-0.2709,0.1488-0.538,0.0189-0.799
c-0.134-0.2611-0.4232-0.5891-0.871-0.9839c-0.4499-0.396-0.781-0.7161-0.993-0.959c-0.214-0.2461-0.3782-0.506-0.4969-0.7832
c-0.25-0.5321-0.2041-1.1228,0.1369-1.77c0.3441-0.65,0.843-1.025,1.4981-1.1259c0.6559-0.1032,1.332,0.0309,2.0279,0.3971
c0.447,0.2348,0.851,0.544,1.2161,0.923c0.3639,0.3818,0.6358,0.788,0.8138,1.2249l-1.1018,0.5589
c-0.1072-0.297-0.3062-0.5989-0.5982-0.9039C42.0872,104.2563,41.7691,104.0142,41.4261,103.8319z"></path>
<polygon class="st0" points="45.4383,113.078 44.1613,112.61 45.2333,109.673 44.1094,104.159 45.4845,104.661 46.2805,108.7891 
49.5502,106.145 50.9253,106.647 46.5112,110.139 "></polygon>
<path class="st0" d="M53.0023,108.0861c-0.379-0.0841-0.707-0.0739-0.9862,0.029c-0.2778,0.1-0.4499,0.3081-0.5199,0.621
c-0.0689,0.3158,0.002,0.5811,0.2089,0.8011c0.2072,0.2188,0.684,0.5119,1.4372,0.877c0.752,0.3649,1.2909,0.766,1.6169,1.2008
c0.3271,0.434,0.415,0.991,0.2659,1.6642c-0.1449,0.6749-0.5219,1.1679-1.1228,1.4788c-0.601,0.309-1.3162,0.3711-2.143,0.1911
c-1.2082-0.265-2.1912-0.9159-2.9472-1.957l1.0372-0.8059c0.631,0.8509,1.3688,1.3688,2.2107,1.5519
c0.4232,0.0919,0.7773,0.0749,1.063-0.0521c0.2855-0.1259,0.4612-0.3399,0.5273-0.637c0.066-0.2999,0-0.559-0.1971-0.775
c-0.195-0.216-0.5641-0.4558-1.1001-0.7149c-0.5388-0.2622-0.9439-0.4821-1.2141-0.6601c-0.2687-0.1798-0.4989-0.3878-0.6879-0.6228
c-0.3799-0.4462-0.4918-1.0281-0.334-1.743c0.1531-0.7181,0.5349-1.211,1.1401-1.484c0.6052-0.2732,1.2921-0.326,2.0588-0.1581
c0.4933,0.1088,0.9661,0.295,1.4191,0.564c0.4521,0.2719,0.82,0.5919,1.11,0.9641l-0.911,0.8328
c-0.184-0.2579-0.457-0.4949-0.819-0.7129C53.7543,108.3211,53.3821,108.1681,53.0023,108.0861z"></path>
<polygon class="st0" points="59.8003,109.2481 59.2481,115.9239 57.9161,115.8111 58.4663,109.1369 56.0725,108.9419 
56.1722,107.7199 62.2942,108.225 62.1944,109.4431 "></polygon>
<polygon class="st0" points="68.3363,107.9121 68.4032,109.1681 64.1812,109.3872 64.2892,111.4829 68.0823,111.2831 
68.1412,112.473 64.3525,112.67 64.4613,114.785 68.8204,114.5591 68.8842,115.8171 63.1922,116.111 62.7801,108.1992 "></polygon>
<polygon class="st0" points="72.2152,115.3479 70.9121,115.6521 69.0883,107.945 71.1162,107.4651 74.5901,111.7581 
75.7701,106.3649 77.7892,105.889 79.6122,113.5961 78.3122,113.9031 76.8873,107.8829 75.4634,113.8671 74.7343,114.04 
70.7894,109.324 "></polygon>
<path class="st0" d="M87.2592,108.828c0.4071-0.2129,0.726-0.4629,0.9491-0.7538c0.2231-0.2911,0.4189-0.6701,0.5867-1.1372
l1.1693,0.3912c-0.3172,1.2089-1.0091,2.088-2.0732,2.6379c-1.065,0.551-2.124,0.665-3.1791,0.3421
c-1.0559-0.3203-1.8527-1.0051-2.393-2.0531c-0.5425-1.0468-0.6358-2.103-0.2818-3.172c0.3541-1.065,1.0769-1.883,2.1668-2.446
c1.0914-0.5649,2.2111-0.631,3.3583-0.2041l-0.328,1.2141c-0.504-0.1491-0.936-0.2069-1.2991-0.182
c-0.3671,0.0269-0.7509,0.144-1.152,0.3521c-0.7118,0.3679-1.19,0.9059-1.4361,1.6188c-0.2449,0.707-0.1839,1.4202,0.186,2.1342
c0.3693,0.7149,0.919,1.188,1.6449,1.4199C85.9063,109.2231,86.6002,109.1661,87.2592,108.828z"></path>
<polygon class="st0" points="91.8993,97.789 92.6383,98.8081 89.2202,101.2949 90.4544,102.99 93.5232,100.758 94.2223,101.7192 
91.1523,103.9521 92.3984,105.6659 95.9264,103.1011 96.6683,104.1171 92.0563,107.4702 87.3981,101.063 "></polygon>
<path class="st0" d="M98.3713,96.688c0.0289-0.356-0.138-0.72-0.4992-1.0859c-0.3668-0.3699-0.7149-0.525-1.0491-0.4649
c-0.1391,0.0241-0.2933,0.0867-0.4629,0.1882V93.941c0.1928-0.0774,0.3782-0.1262,0.5559-0.1469
c0.6582-0.0751,1.3023,0.207,1.9341,0.8479c0.9201,0.9289,1.091,1.9182,0.5162,2.9602l3.4979,0.5907l-1.207,1.1963l-3.2198-0.5681
l-1.251,1.2339l1.8709,1.8961l-0.951,0.9389l-1.7462-1.7694v-1.952l1.162-1.1466C98.0561,97.49,98.3433,97.046,98.3713,96.688z
 M96.3601,95.3254c-0.2384,0.1426-0.5068,0.3617-0.8058,0.6568l-1.209,1.194l1.991,2.016l0.0238-0.0236v1.952l-3.8177-3.8685
l2.0968-2.069c0.6279-0.6199,1.2016-1.0341,1.7209-1.2421V95.3254z"></path>
<polygon class="st0" points="100.3125,90.5181 105.6402,94.5759 104.8301,95.6409 99.5032,91.5831 98.0473,93.494 97.0733,92.7521 
100.7952,87.8649 101.7672,88.6082 "></polygon>
<rect x="104.0846" y="84.8706" transform="matrix(0.5263 -0.8503 0.8503 0.5263 -25.9134 131.1476)" class="st0" width="1.337" height="7.9228"></rect>
<polygon class="st0" points="104.1685,84.399 106.1181,85.3611 107.6763,82.2109 108.7833,82.76 107.2285,85.909 110.1541,87.3552 
109.5602,88.5532 102.4583,85.045 104.7992,80.3092 105.9112,80.873 "></polygon>
<rect x="108.254" y="76.4288" transform="matrix(0.354 -0.9352 0.9352 0.354 -4.82 153.801)" class="st0" width="1.338" height="7.9215"></rect>
<polygon class="st0" points="107.3793,71.763 108.5933,72.0861 107.5114,76.172 109.5381,76.7092 110.5101,73.0411 
111.6604,73.3461 110.6864,77.0142 112.7353,77.559 113.8553,73.3422 115.0714,73.6659 113.6081,79.175 105.9512,77.1412 "></polygon>
<path class="st0" d="M112.0794,65.6149c-0.1281-0.013-0.2517-0.0201-0.3719-0.0218v-1.351
c0.1531,0.0026,0.3104,0.0116,0.4717,0.0281c1.2271,0.1247,2.1568,0.593,2.7969,1.4028c0.6404,0.8099,0.879,1.9741,0.726,3.4912
l-0.2668,2.6149l-3.7278-0.3812v-1.3431l2.609,0.2673l0.1528-1.476c0.0961-0.9541-0.0542-1.709-0.4592-2.262
C113.6092,66.0271,112.9621,65.7051,112.0794,65.6149z M111.7075,65.5931c-1.5747-0.0224-2.4574,0.9264-2.6544,2.8471
l-0.1358,1.3289l2.7902,0.2857v1.3431l-4.1562-0.4249l0.277-2.7048c0.1471-1.4131,0.6009-2.4631,1.366-3.1533
c0.6641-0.5981,1.5026-0.8884,2.5132-0.8728V65.5931z"></path>
<path class="st0" d="M29.6711,28.4882l1.4712-1.6671l3.3749,2.9829c0.201,1.838-0.462,3.6232-1.991,5.3532
c-1.2898,1.4607-2.8491,2.257-4.6792,2.3928c-1.8269,0.136-3.475-0.4459-4.9439-1.7419c-1.4689-1.296-2.2498-2.88-2.3459-4.7489
c-0.0907-1.8661,0.489-3.5102,1.745-4.9332c1.2552-1.421,2.7139-2.2348,4.3738-2.4448l0.4865,2.0117
c-0.6704,0.0941-1.2433,0.2812-1.7144,0.5601c-0.4728,0.279-0.9369,0.6761-1.3969,1.192c-0.8799,0.9989-1.296,2.1232-1.251,3.3713
c0.0451,1.2446,0.593,2.3329,1.6438,3.2618c1.0491,0.9269,2.1853,1.341,3.3991,1.243c1.2172-0.0981,2.241-0.6151,3.0702-1.552
c0.8271-0.9351,1.317-1.9001,1.4689-2.886L29.6711,28.4882z"></path>
<rect x="32.5987" y="17.502" transform="matrix(0.7946 -0.6071 0.6071 0.7946 -7.9576 25.4619)" class="st0" width="2.111" height="13.9806"></rect>
<path class="st0" d="M41.6719,25.0418c0.5012,0.002,1.0043-0.1273,1.5092-0.3886c0.8112-0.4201,1.343-1.0401,1.5942-1.855
c0.2491-0.8133,0.1508-1.6512-0.2923-2.5112c-0.4447-0.8589-1.0738-1.4188-1.8847-1.6869c-0.3085-0.1012-0.6172-0.1523-0.9264-0.154
v-1.9298c0.5519-0.0142,1.1052,0.0652,1.6591,0.2387c1.3513,0.4249,2.3601,1.279,3.0243,2.5631
c0.663,1.2818,0.779,2.5971,0.347,3.9469c-0.434,1.3459-1.3182,2.3701-2.6572,3.062c-0.7884,0.4088-1.5798,0.6231-2.3732,0.6435
V25.0418z M40.7441,24.887c0.3084,0.1021,0.6177,0.1534,0.9278,0.1548v1.9287c-0.553,0.0142-1.1072-0.0658-1.6617-0.2404
c-1.3501-0.4241-2.3581-1.2781-3.024-2.56c-0.663-1.2832-0.7789-2.599-0.3461-3.9481c0.4351-1.3481,1.3181-2.3689,2.6581-3.0619
c0.788-0.4088,1.5797-0.6234,2.3737-0.6438v1.9298c-0.5017-0.0025-1.0046,0.1262-1.5089,0.3881
c-0.8158,0.4209-1.3459,1.0381-1.5948,1.855c-0.2477,0.815-0.1522,1.652,0.2929,2.5118
C39.3052,24.059,39.9331,24.6211,40.7441,24.887z"></path>
<path class="st0" d="M53.2032,20.8879c0.2135-0.0003,0.4312-0.0249,0.6528-0.0737c0.8093-0.1803,1.4471-0.6321,1.9183-1.353
c0.4731-0.7203,0.6017-1.5522,0.3948-2.4891c-0.2089-0.9391-0.676-1.652-1.4028-2.1421c-0.4972-0.3359-1.0191-0.5125-1.5631-0.5312
v-1.9157c0.9885-0.0544,1.9239,0.1911,2.8049,0.735c1.1333,0.6999,1.8692,1.8051,2.202,3.314
c0.3362,1.5069,0.1431,2.8381-0.576,3.985c-0.713,1.15-1.6869,1.8629-2.92,2.135c-0.5049,0.1123-1.0083,0.1287-1.5109,0.0508
V20.8879z M50.2413,18.2749c0.2069,0.9332,0.6599,1.6342,1.357,2.1042c0.5045,0.3404,1.04,0.5097,1.6049,0.5088v1.715
c-0.7245-0.1129-1.4471-0.423-2.1679-0.9309l0.326,1.47l-2.06,0.4581L46.2734,9.951l2.0599-0.4581l1.2379,5.5741
c0.5329-1.4179,1.4559-2.272,2.768-2.5628c0.2923-0.0652,0.5803-0.1052,0.864-0.1211v1.9157
c-0.248-0.0088-0.5009,0.0156-0.758,0.0723c-0.82,0.1819-1.447,0.6471-1.872,1.3901C50.1483,16.505,50.0361,17.344,50.2413,18.2749z
"></path>
<path class="st0" d="M66.1343,17.909l0.021-0.8479l-2.3448-0.0572v-1.4706l2.3986,0.0586l0.0091-0.3758
c0.034-1.3292-0.6911-2.0149-2.173-2.0501c-0.078-0.0019-0.1562-0.0014-0.2347,0.0015v-1.738
c0.1905-0.011,0.3832-0.0141,0.5785-0.0093c1.1792,0.0298,2.1351,0.3529,2.8701,0.9649c0.7322,0.616,1.082,1.563,1.05,2.844
l-0.1588,6.461l-1.9219-0.047l0.036-1.3371c-0.6585,0.7474-1.4757,1.1987-2.4539,1.3504v-1.7201
c0.5726-0.0275,1.0848-0.2004,1.5315-0.5193C65.8554,19.0519,66.1182,18.5482,66.1343,17.909z M63.8105,17.0039l-0.0292-0.0009
c-1.52-0.038-2.2901,0.4201-2.3151,1.3771c-0.0099,0.4878,0.1678,0.8671,0.5409,1.1341c0.3673,0.2659,0.8881,0.4068,1.561,0.4249
c0.0819,0.0018,0.1627,0.0009,0.2424-0.0028v1.7201c-0.2911,0.0453-0.5967,0.0638-0.9165,0.0558
c-1.0437-0.0241-1.9009-0.3421-2.5699-0.951c-0.6698-0.6041-0.991-1.402-0.9669-2.3871c0.0222-0.987,0.406-1.7161,1.1458-2.1849
c0.7413-0.4723,1.7311-0.6951,2.9753-0.6642l0.3322,0.0083V17.0039L63.8105,17.0039z M63.8105,11.4295v1.738
c-0.8589,0.0314-1.755,0.3452-2.6904,0.9425l-0.9088-1.34C61.2953,11.9508,62.4952,11.5044,63.8105,11.4295z"></path>
<rect x="64.9632" y="14.358" transform="matrix(0.184 -0.9829 0.9829 0.184 43.5674 83.3041)" class="st0" width="13.9813" height="2.1109"></rect>
<path class="st0" d="M79.9583,13.85c-0.3461,0.12-0.5862,0.3581-0.7211,0.7181c-0.133,0.356-0.0791,0.703,0.1669,1.0349
c0.2444,0.3339,0.8981,0.864,1.9622,1.5891c1.0621,0.7259,1.8099,1.497,2.2408,2.315c0.4342,0.817,0.4422,1.7819,0.028,2.886
c-0.4138,1.1058-1.165,1.8479-2.249,2.228c-1.0868,0.377-2.3068,0.3141-3.6609-0.1899c-1.952-0.731-3.441-2.1132-4.4652-4.1442
l2.3925-1.3989c0.8949,1.6619,1.9077,2.7039,3.0356,3.126c0.5071,0.1888,0.9439,0.2279,1.3142,0.1171
c0.3682-0.1092,0.6239-0.3481,0.7619-0.7192c0.1381-0.3719,0.095-0.722-0.1301-1.0528c-0.2237-0.3342-0.7481-0.782-1.569-1.343
c-1.309-0.8771-2.194-1.7141-2.6521-2.5092c-0.4598-0.796-0.4728-1.7768-0.036-2.9489c0.4371-1.1702,1.1971-1.9179,2.2751-2.238
c1.0772-0.3211,2.2482-0.2469,3.505,0.2251c0.8252,0.3067,1.596,0.754,2.312,1.3448c0.7203,0.5901,1.288,1.26,1.707,2.0052
l-2.147,1.4919c-0.7698-1.213-1.722-2.0319-2.8629-2.46C80.7081,13.7579,80.3053,13.7301,79.9583,13.85z"></path>
<polygon class="st0" points="93.0093,20.4431 87.1283,29.2921 84.6783,27.6641 90.5613,18.8161 87.4554,16.7502 88.8634,14.631 
97.5232,20.3901 96.1161,22.5051 "></polygon>
<path class="st0" d="M98.3869,34.8077c0.9201,0.0255,1.834-0.3634,2.7391-1.1667c0.9661-0.8589,1.4692-1.791,1.51-2.7919
c0.0411-1.0051-0.4328-2.065-1.4269-3.183l-1.0888-1.2251l-1.7334,1.5403v-3.9302l1.6974-1.508l3.0909,3.4781
c1.5591,1.7549,2.3278,3.486,2.3009,5.1879c-0.0218,1.7-0.8,3.2329-2.3321,4.5941c-1.5004,1.3346-3.0869,1.9537-4.7571,1.8607
V34.8077z M98.1925,34.7961c0.0649,0.0059,0.1295,0.0096,0.1944,0.0116v2.8562l-0.0947-0.0059
c-1.705-0.1219-3.3942-1.126-5.0609-3.0008l-2.9929-3.3673l8.1485-7.2388v3.9302l-4.2517,3.7786l1.2391,1.3952
C96.2663,34.1591,97.2063,34.706,98.1925,34.7961z"></path>
<path class="st0" d="M97.7432,74.3751c-4.5219-5.307-16.602-4.7931-28.2011,1.4899c-11.264,6.1002-18.2191,15.5461-16.8089,22.2092
c3.2582,0.9518,6.704,1.4768,10.2719,1.4768C79.2205,99.551,92.9583,88.988,97.7432,74.3751z"></path>
<path class="st0" d="M33.5603,84.6419c3.2522,4.413,7.4647,8.0711,12.3369,10.6572C45.8774,86.0309,52.655,74.986,64.0503,67.335
c12.685-8.5201,27.1009-10.1489,35.4937-4.803c-0.0947-7.414-2.3958-14.296-6.2779-20.0189
c-11.0557-1.9562-23.2869-0.388-34.317,5.2141C42.9713,55.8419,33.7371,70.2691,33.5603,84.6419z"></path>
<path class="st0" d="M59.2872,36.591c7.4432-3.1561,15.0801-4.7659,22.542-4.9269c-5.4978-3.3131-11.9361-5.2149-18.8241-5.2149
c-20.1846-0.0003-36.549,16.363-36.549,36.5499c0,5.8989,1.402,11.4659,3.8851,16.3999C30.6814,61.5841,41.512,44.13,59.2872,36.591
z"></path>
<path class="st0" d="M63.0003,2.7992c33.2467,0.0005,60.2,26.9541,60.2,60.1999c0,33.2456-26.9535,60.2014-60.2,60.2019V126
c34.7925-0.0006,62.9989-28.2093,62.9989-63.0009c0-34.7907-28.2064-62.9986-62.9989-62.9991V2.7992z M62.9992,123.201
c-33.2439,0-60.1991-26.956-60.1991-60.2019c0-33.2461,26.9549-60.1999,60.1991-60.1999h0.0011V0h-0.0011
C28.2104,0,0,28.2081,0,62.9991C0.0003,97.791,28.2102,126,62.9992,126h0.0011v-2.799H62.9992z"></path>
</svg>